<svg width="25" height="25" viewBox="0 0 25 25" fill="none" xmlns="http://www.w3.org/2000/svg">
<rect width="25" height="25" fill="#D9D9D9"/>
<path d="M20 18.9998H6C5.44772 18.9998 5 19.4475 5 19.9998C5 20.552 5.44772 20.9998 6 20.9998H20C20.5523 20.9998 21 20.552 21 19.9998C21 19.4475 20.5523 18.9998 20 18.9998Z" fill="#149C55"/>
<path d="M5 18V20C5 20.5523 5.44772 21 6 21C6.55228 21 7 20.5523 7 20V18C7 17.4477 6.55228 17 6 17C5.44772 17 5 17.4477 5 18Z" fill="#149C55"/>
<path d="M19 18V20C19 20.5523 19.4477 21 20 21C20.5523 21 21 20.5523 21 20V18C21 17.4477 20.5523 17 20 17C19.4477 17 19 17.4477 19 18Z" fill="#149C55"/>
<path d="M13 16C12.7926 16.0016 12.59 15.9387 12.42 15.82L8.41995 13C8.20436 12.8471 8.05809 12.615 8.01312 12.3545C7.96815 12.0941 8.02813 11.8264 8.17995 11.61C8.25574 11.5019 8.35219 11.4098 8.46376 11.3391C8.57532 11.2684 8.69977 11.2206 8.82994 11.1982C8.9601 11.1759 9.09339 11.1796 9.22212 11.2091C9.35085 11.2386 9.47247 11.2933 9.57995 11.37L13 13.76L16.4 11.2C16.6121 11.0409 16.8788 10.9725 17.1414 11.0101C17.4039 11.0476 17.6408 11.1878 17.8 11.4C17.9591 11.6122 18.0274 11.8789 17.9899 12.1414C17.9524 12.404 17.8121 12.6409 17.6 12.8L13.6 15.8C13.4269 15.9298 13.2163 16 13 16V16Z" fill="#149C55"/>
<path d="M13 14C12.7348 14 12.4804 13.8946 12.2929 13.7071C12.1054 13.5196 12 13.2652 12 13V5C12 4.73478 12.1054 4.48043 12.2929 4.29289C12.4804 4.10536 12.7348 4 13 4C13.2652 4 13.5196 4.10536 13.7071 4.29289C13.8946 4.48043 14 4.73478 14 5V13C14 13.2652 13.8946 13.5196 13.7071 13.7071C13.5196 13.8946 13.2652 14 13 14Z" fill="#149C55"/>
</svg>
