<?xml version="1.0" encoding="UTF-8"?>
<!DOCTYPE svg PUBLIC "-//W3C//DTD SVG 1.0//EN" "http://www.w3.org/TR/2001/REC-SVG-20010904/DTD/svg10.dtd">
<!-- Creator: CorelDRAW X7 -->
<svg xmlns="http://www.w3.org/2000/svg" xml:space="preserve" width="115px" height="75px" version="1.0" style="shape-rendering:geometricPrecision; text-rendering:geometricPrecision; image-rendering:optimizeQuality; fill-rule:evenodd; clip-rule:evenodd"
viewBox="0 0 253 165"
 xmlns:xlink="http://www.w3.org/1999/xlink">
 <defs>
  <style type="text/css">
   <![CDATA[
    .fil1 {fill:#97999B;fill-rule:nonzero}
    .fil2 {fill:#858789;fill-rule:nonzero}
    .fil0 {fill:#ED323E;fill-rule:nonzero}
   ]]>
  </style>
 </defs>
 <g id="Layer_x0020_1">
  <metadata id="CorelCorpID_0Corel-Layer"/>
  <g id="_1489462031072">
   <path class="fil0" d="M38 150l-26 0c-3,0 -6,-1 -8,-3 -3,-2 -4,-4 -4,-7l0 -12c0,-2 1,-4 4,-6 2,-2 5,-3 8,-3l23 0 0 8 -22 0c-1,0 -2,0 -3,0 0,1 0,1 0,2l0 10c0,1 0,2 0,2 1,1 2,1 3,1l15 0 0 -5 -9 0 0 -6 19 0 0 19z"/>
   <path class="fil0" d="M75 128c0,3 -1,5 -3,7 -2,2 -5,2 -8,2l-17 0 0 3c0,0 0,1 1,1 0,1 1,1 2,1l23 0 0 8 -24 0c-3,0 -6,-1 -8,-3 -2,-2 -3,-4 -3,-7l0 -12c0,-2 1,-4 3,-6 2,-2 5,-3 8,-3l15 0c3,0 6,1 8,3 2,1 3,4 3,6zm-9 1l0 0c0,-1 -1,-1 -1,-2 -1,0 -1,0 -2,0l-13 0c-1,0 -2,0 -2,0 -1,1 -1,1 -1,2l0 2 16 0c1,0 1,0 2,0 0,-1 1,-1 1,-2z"/>
   <path class="fil0" d="M113 140c0,3 -2,5 -4,7 -2,2 -5,3 -8,3l-14 0c-3,0 -6,-1 -9,-3 -2,-2 -3,-4 -3,-7l0 -12c0,-2 1,-4 3,-6 3,-2 6,-3 9,-3l14 0c3,0 6,1 8,3 2,2 4,4 4,6l0 12zm-10 -1l0 0 0 -10c0,-1 0,-1 -1,-2 0,0 -1,0 -2,0l-12 0c-1,0 -2,0 -3,0 0,1 -1,1 -1,2l0 10c0,1 1,2 1,2 1,1 2,1 3,1l12 0c1,0 2,0 2,-1 1,0 1,-1 1,-2z"/>
   <path class="fil1" d="M150 141c0,2 -1,4 -3,6 -2,2 -5,3 -8,3l-24 0 0 -8 23 0c1,0 1,0 2,-1 0,0 1,-1 1,-1 0,-1 -1,-1 -1,-2 -1,0 -1,-1 -2,-1l-15 0c-3,0 -5,0 -7,-2 -2,-2 -3,-4 -3,-7 0,-2 1,-5 3,-6 2,-2 4,-3 7,-3l25 0 0 8 -23 0c-1,0 -2,0 -2,0 -1,1 -1,1 -1,2 0,0 0,1 1,2 0,0 1,0 2,0l14 0c3,0 6,1 8,3 2,2 3,4 3,7z"/>
   <polygon class="fil1" points="183,127 171,127 171,150 162,150 162,127 150,127 150,119 183,119 "/>
   <path class="fil1" d="M220 150l-26 0c-3,0 -6,-1 -8,-3 -2,-2 -3,-4 -3,-6 0,-3 1,-5 3,-7 2,-2 5,-3 8,-3l17 0 0 -2c0,-1 0,-1 -1,-2 -1,0 -1,0 -2,0l-23 0 0 -8 23 0c4,0 6,1 9,3 2,2 3,4 3,6l0 22zm-9 -8l0 0 0 -5 -16 0c-1,0 -1,1 -2,1 -1,1 -1,1 -1,2 0,0 0,1 1,1 1,1 1,1 2,1l16 0z"/>
   <polygon class="fil1" points="253,127 241,127 241,150 232,150 232,127 220,127 220,119 253,119 "/>
   <polygon class="fil1" points="25,108 0,108 0,85 25,85 "/>
   <polygon class="fil1" points="50,108 26,108 26,45 50,45 "/>
   <polygon class="fil1" points="75,108 51,108 51,65 75,65 "/>
   <polygon class="fil1" points="101,108 76,108 76,0 101,0 "/>
   <polygon class="fil1" points="127,108 102,108 102,10 127,10 "/>
   <polygon class="fil0" points="152,108 128,108 128,17 152,17 "/>
   <polygon class="fil0" points="177,108 153,108 153,29 177,29 "/>
   <polygon class="fil0" points="202,108 178,108 178,56 202,56 "/>
   <polygon class="fil0" points="228,108 203,108 203,15 228,15 "/>
   <polygon class="fil0" points="253,108 229,108 229,31 253,31 "/>
   <polygon class="fil2" points="253,109 0,109 0,105 253,105 "/>
   <g>
    <path class="fil0" d="M163 156l1 3c0,1 0,1 0,2l0 0c1,-1 1,-1 1,-2l1 -3 1 0 1 3c0,1 1,1 1,2l0 0c0,-1 0,-1 0,-2l1 -3 1 0 -2 6 -1 0 -1 -3c0,-1 0,-1 0,-2l0 0c-1,1 -1,1 -1,2l-1 3 -1 0 -2 -6 1 0z"/>
    <path class="fil0" d="M173 156l1 3c0,1 0,1 0,2l1 0c0,-1 0,-1 0,-2l1 -3 1 0 1 3c0,1 1,1 1,2l0 0c0,-1 0,-1 0,-2l1 -3 1 0 -2 6 -1 0 -1 -3c0,-1 0,-1 0,-2l0 0c-1,1 -1,1 -1,2l-1 3 -1 0 -2 -6 1 0z"/>
    <path class="fil0" d="M183 156l1 3c0,1 0,1 1,2l0 0c0,-1 0,-1 0,-2l1 -3 1 0 1 3c1,1 1,1 1,2l0 0c0,-1 0,-1 0,-2l1 -3 2 0 -3 6 -1 0 -1 -3c0,-1 0,-1 0,-2l0 0c0,1 -1,1 -1,2l-1 3 -1 0 -2 -6 1 0z"/>
    <path class="fil0" d="M192 162c0,-1 0,-1 1,-1 0,0 0,0 0,1 0,0 0,0 0,0 -1,0 -1,0 -1,0z"/>
    <path class="fil0" d="M201 161c0,2 -1,3 -1,3 -1,1 -2,1 -3,1 -1,0 -1,0 -2,0l0 -1c1,0 1,0 2,0 1,0 2,0 2,-2l0 -1 0 0c0,1 -1,1 -2,1 -1,0 -3,-1 -3,-3 0,-2 2,-3 3,-3 2,0 2,0 2,1l1 0 0 -1 1 0c0,0 0,1 0,2l0 3zm-2 -3l0 0c0,0 0,0 0,0 0,-1 0,-1 -1,-1 -2,0 -2,0 -2,2 0,1 0,2 2,2 0,0 1,0 1,-1 0,0 0,0 0,-1l0 -1z"/>
    <path class="fil0" d="M203 159c0,2 1,2 2,2 1,0 2,0 2,0l0 1c0,0 -1,0 -2,0 -2,0 -3,-1 -3,-3 0,-2 1,-3 3,-3 2,0 3,1 3,3 0,0 0,0 0,0l-5 0zm4 -1l0 0c0,0 -1,-2 -2,-2 -1,0 -2,2 -2,2l4 0z"/>
    <path class="fil0" d="M215 159c0,2 -2,3 -3,3 -2,0 -3,-1 -3,-3 0,-2 1,-3 3,-3 2,0 3,1 3,3zm-5 0l0 0c0,1 1,3 2,3 1,0 2,-2 2,-3 0,-1 -1,-3 -2,-3 -1,0 -2,2 -2,3z"/>
    <path class="fil0" d="M217 161c0,0 0,1 1,1 1,0 1,-1 1,-1 0,-1 0,-1 -1,-2 -1,0 -2,-1 -2,-1 0,-2 1,-2 3,-2 0,0 1,0 1,0l0 1c0,0 -1,-1 -1,-1 -1,0 -1,1 -1,1 0,1 0,1 1,1 1,1 1,1 1,2 0,2 0,2 -2,2 -1,0 -1,0 -2,0l1 -1z"/>
    <path class="fil0" d="M223 154l0 2 2 0 0 1 -2 0 0 3c0,1 1,1 1,1 1,0 1,0 1,0l0 1c0,0 -1,0 -1,0 -1,0 -1,0 -1,0 -1,0 -1,-1 -1,-2l0 -3 -1 0 0 -1 1 0 0 -1 1 -1z"/>
    <path class="fil0" d="M231 161c0,0 0,1 0,1l-1 0 0 -1 0 0c0,1 -1,1 -2,1 -1,0 -2,-1 -2,-1 0,-2 1,-3 4,-3l0 0c0,-1 0,-2 -2,-2 0,0 -1,1 -1,1l-1 -1c1,0 2,0 3,0 2,0 2,1 2,2l0 3zm-1 -2l0 0c-1,0 -3,0 -3,1 0,1 1,2 1,2 1,0 2,-1 2,-2 0,0 0,0 0,0l0 -1z"/>
    <path class="fil0" d="M234 154l0 2 2 0 0 1 -2 0 0 3c0,1 1,1 1,1 1,0 1,0 1,0l0 1c0,0 -1,0 -1,0 -1,0 -1,0 -1,0 -1,0 -1,-1 -1,-2l0 -3 -1 0 0 -1 1 0 0 -1 1 -1z"/>
    <path class="fil0" d="M237 162c0,-1 0,-1 1,-1 0,0 1,0 1,1 0,0 -1,0 -1,0 -1,0 -1,0 -1,0z"/>
    <path class="fil0" d="M246 161c0,2 -1,3 -1,3 -1,1 -2,1 -3,1 0,0 -1,0 -2,0l1 -1c0,0 1,0 1,0 2,0 3,0 3,-2l0 -1 0 0c-1,1 -2,1 -3,1 -1,0 -2,-1 -2,-3 0,-2 1,-3 3,-3 1,0 1,0 2,1l0 0 0 -1 1 0c0,0 0,1 0,2l0 3zm-1 -3l0 0c0,0 0,0 0,0 -1,-1 -1,-1 -2,-1 -1,0 -2,0 -2,2 0,1 1,2 2,2 1,0 1,0 1,-1 1,0 1,0 1,-1l0 -1z"/>
    <path class="fil0" d="M248 159c0,2 1,2 3,2 0,0 1,0 1,0l1 1c-1,0 -2,0 -3,0 -2,0 -3,-1 -3,-3 0,-2 1,-3 3,-3 2,0 3,1 3,3 0,0 0,0 0,0l-5 0zm4 -1l0 0c0,0 0,-2 -2,-2 -1,0 -2,2 -2,2l4 0z"/>
   </g>
  </g>
 </g>
</svg>
