<svg width="71" height="45" viewBox="0 0 71 45" fill="none" xmlns="http://www.w3.org/2000/svg">
<path d="M6.47371 34.7052C6.47371 35.2973 6.59381 35.6293 6.83361 35.7022C7.58624 35.8606 7.96276 36.3302 7.96276 37.1106V38.8747C7.96276 39.9722 7.00068 40.5201 5.0765 40.5201H2.90214C0.977958 40.5201 0.0158691 39.9722 0.0158691 38.8747V33.2456H1.68903V38.8747C1.68903 39.4126 2.09298 39.6805 2.90172 39.6805H5.0765C5.88482 39.6805 6.28919 39.4122 6.28919 38.8747V37.1102C6.30581 36.6764 6.04108 36.3835 5.49458 36.2264C5.0765 36.1472 4.84501 35.6397 4.80013 34.7048H6.47371V34.7052Z" fill="#EC1B2E"/>
<path d="M10.2035 36.5376V38.8747C10.2035 39.4126 10.6083 39.6809 11.4166 39.6809H13.5914C14.3997 39.6809 14.8045 39.4122 14.8045 38.8747L14.846 36.0318C14.846 35.4914 14.4421 35.2214 13.6333 35.2214H12.8387C11.3331 35.2214 10.58 34.5777 10.58 33.2881H12.2528C12.2528 34.0197 12.4423 34.3856 12.8217 34.3856H13.6329C15.5567 34.3856 16.5188 34.9343 16.5188 36.0318L16.4772 38.8747C16.4772 39.9722 15.5151 40.5201 13.591 40.5201H11.4162C9.492 40.5201 8.52991 39.9722 8.52991 38.8747V36.5376H10.2035Z" fill="#EC1B2E"/>
<path d="M17.4643 35.3916C17.4643 34.2942 18.3927 33.7471 20.2504 33.7471H21.0196C21.7839 33.7471 22.5507 33.9329 23.3203 34.3087V33.25H24.9927V38.8791C24.9927 39.9766 24.0306 40.5253 22.1068 40.5253H19.932C18.0079 40.5253 17.0458 39.9766 17.0458 38.8791L17.1293 37.415H18.8025L18.7189 38.8791C18.7189 39.417 19.1233 39.6858 19.932 39.6858H22.1068C22.9151 39.6858 23.3199 39.417 23.3199 38.8791V35.8025C23.2809 35.18 22.5137 34.7725 21.0192 34.5812H20.2662C19.514 34.5812 19.1374 34.8521 19.1374 35.3921L19.221 36.2075H17.5478L17.4643 35.3916Z" fill="#EC1B2E"/>
<path d="M31.9742 34.7052C31.9742 35.2973 32.0943 35.6293 32.3341 35.7022C33.0863 35.8606 33.4633 36.3302 33.4633 37.1106V38.8747C33.4633 39.9722 32.5012 40.5201 30.577 40.5201H28.4026C26.4789 40.5201 25.5164 39.9722 25.5164 38.8747V33.2456H27.1891V38.8747C27.1891 39.4126 27.5935 39.6805 28.4022 39.6805H30.5766C31.3849 39.6805 31.7897 39.4122 31.7897 38.8747V37.1102C31.8063 36.6764 31.5416 36.3835 30.9951 36.2264C30.5766 36.1472 30.3455 35.6397 30.3006 34.7048H31.9742V34.7052Z" fill="#929497"/>
<path d="M38.0962 34.3672H37.0003C36.192 34.3672 35.7876 34.6368 35.7876 35.178V38.8751C35.7876 39.4126 36.192 39.6809 37.0003 39.6809H40.79C41.5975 39.6809 42.0023 39.4121 42.0023 38.8751V35.178C42.0023 34.6368 41.5975 34.3672 40.79 34.3672H39.6019V36.7834H38.0962V34.3672ZM34.1144 35.2493C34.1144 34.1522 35.0711 33.6039 36.9841 33.6039H38.0962V32.8489H39.6019V33.6039H40.79C42.7134 33.6039 43.6759 34.1522 43.6759 35.2493V38.8751C43.6759 39.9726 42.7134 40.5201 40.79 40.5201H37.0003C35.0765 40.5201 34.114 39.9726 34.114 38.8751V35.2493H34.1144Z" fill="#929497"/>
<path d="M45.7892 36.5376V38.8747C45.7892 39.4126 46.1928 39.6809 47.0019 39.6809H49.1767C49.985 39.6809 50.3898 39.4122 50.3898 38.8747L50.4314 36.0318C50.4314 35.4914 50.027 35.2214 49.2191 35.2214H48.4237C46.9184 35.2214 46.1649 34.5777 46.1649 33.2881H47.8381C47.8381 34.0197 48.0272 34.3856 48.407 34.3856H49.2187C51.142 34.3856 52.1045 34.9343 52.1045 36.0318L52.0621 38.8747C52.0621 39.9722 51.1 40.5201 49.1763 40.5201H47.0015C45.0773 40.5201 44.1152 39.9722 44.1152 38.8747V36.5376H45.7892Z" fill="#929497"/>
<path d="M56.6967 34.3672H55.5995C54.7921 34.3672 54.3873 34.6368 54.3873 35.178V38.8751C54.3873 39.4126 54.7916 39.6809 55.5995 39.6809H59.3893C60.198 39.6809 60.6024 39.4121 60.6024 38.8751V35.178C60.6024 34.6368 60.198 34.3672 59.3893 34.3672H58.202V36.7834H56.6967V34.3672ZM52.7145 35.2493C52.7145 34.1522 53.6704 33.6039 55.5838 33.6039H56.6967V32.8489H58.202V33.6039H59.3893C61.3135 33.6039 62.2756 34.1522 62.2756 35.2493V38.8751C62.2756 39.9726 61.3131 40.5201 59.3893 40.5201H55.5995C53.6762 40.5201 52.7141 39.9726 52.7141 38.8751V35.2493H52.7145Z" fill="#929497"/>
<path d="M62.8829 40.4059L62.7993 34.8481C62.7993 33.7822 63.7282 33.2498 65.5854 33.2498H67.6933C69.5622 33.2498 70.4956 33.7822 70.4956 34.8481L70.4121 40.4059H68.7393L68.8229 34.8481C68.8229 34.3393 68.4459 34.0847 67.6937 34.0847H65.6025C64.8486 34.0847 64.4733 34.3393 64.4733 34.8481L64.5564 40.4059H62.8829Z" fill="#929497"/>
<path d="M44.5523 42.2878L44.8059 43.2499C44.8561 43.4616 44.9068 43.6587 44.9422 43.8537H44.9538C44.9974 43.662 45.0594 43.4587 45.1213 43.2549L45.4292 42.2883H45.7185L46.0106 43.2358C46.0821 43.462 46.1374 43.662 46.1794 43.8541H46.1906C46.2214 43.6624 46.2733 43.462 46.3352 43.2395L46.6045 42.2883H46.9436L46.3352 44.1816H46.0231L45.7343 43.2782C45.6682 43.0666 45.6142 42.8791 45.5656 42.6562H45.5589C45.5119 42.882 45.4517 43.0774 45.3868 43.2833L45.0814 44.182H44.7701L44.2012 42.2887H44.5523V42.2878Z" fill="#EC1B2E"/>
<path d="M47.464 42.2878L47.7188 43.2499C47.7678 43.4616 47.8193 43.6587 47.8547 43.8537H47.8646C47.9083 43.662 47.9719 43.4587 48.0334 43.2549L48.3413 42.2883H48.6306L48.9231 43.2358C48.993 43.462 49.0474 43.662 49.0919 43.8541H49.1014C49.1338 43.6624 49.1846 43.462 49.2477 43.2395L49.5174 42.2883H49.8549L49.2477 44.1816H48.9344L48.6468 43.2782C48.5786 43.0666 48.5254 42.8791 48.4781 42.6562H48.4697C48.4228 42.882 48.3642 43.0774 48.2993 43.2833L47.9939 44.182H47.6822L47.1124 42.2887H47.464V42.2878Z" fill="#EC1B2E"/>
<path d="M50.3753 42.2878L50.6288 43.2499C50.6807 43.4616 50.731 43.6587 50.7647 43.8537H50.7776C50.8199 43.662 50.8815 43.4587 50.945 43.2549L51.2534 42.2883H51.5427L51.8344 43.2358C51.9042 43.462 51.9595 43.662 52.0019 43.8541H52.0148C52.0434 43.6624 52.0958 43.462 52.1577 43.2395L52.4274 42.2883H52.7678L52.1573 44.1816H51.8456L51.5564 43.2782C51.4915 43.0666 51.4367 42.8791 51.3893 42.6562H51.381C51.3353 42.882 51.2754 43.0774 51.2089 43.2833L50.9051 44.182H50.5914L50.0237 42.2887H50.3753V42.2878Z" fill="#EC1B2E"/>
<path d="M52.8691 43.9776C52.8691 43.838 52.9685 43.7322 53.1048 43.7322C53.2398 43.7322 53.3334 43.8343 53.3334 43.9776C53.3334 44.1193 53.2394 44.2234 53.0969 44.2234C52.9635 44.2234 52.8691 44.1193 52.8691 43.9776Z" fill="#EC1B2E"/>
<path d="M55.0302 43.0351C55.0302 42.9759 55.0256 42.9263 55.0106 42.8818C54.9471 42.6788 54.7854 42.5155 54.5319 42.5155C54.2036 42.5155 53.9683 42.7926 53.9683 43.2301C53.9683 43.6026 54.1595 43.9126 54.5269 43.9126C54.7409 43.9126 54.9329 43.7788 55.0023 43.5593C55.0219 43.5005 55.0302 43.4338 55.0302 43.3751V43.0351ZM55.373 43.903C55.373 44.3426 55.2853 44.6047 55.105 44.7722C54.9184 44.9417 54.6524 45.0001 54.4151 45.0001C54.1874 45.0001 53.9376 44.9451 53.7847 44.8438L53.8711 44.5772C53.9962 44.6605 54.1907 44.7305 54.4251 44.7305C54.7754 44.7305 55.0356 44.5463 55.0356 44.0663V43.8576H55.0264C54.9255 44.0334 54.7172 44.173 54.4255 44.173C53.9575 44.173 53.6234 43.7763 53.6234 43.2501C53.6234 42.6105 54.039 42.2493 54.477 42.2493C54.8053 42.2493 54.9803 42.4184 55.0655 42.5747H55.0746L55.0867 42.2884H55.3901C55.3789 42.4213 55.3739 42.5776 55.3739 42.8043V43.903H55.373Z" fill="#EC1B2E"/>
<path d="M57.1326 43.0513C57.136 42.8342 57.0416 42.4959 56.6555 42.4959C56.3048 42.4959 56.156 42.8117 56.1298 43.0513H57.1326ZM56.1248 43.2971C56.1331 43.7642 56.4249 43.955 56.7727 43.955C57.0192 43.955 57.1717 43.9121 57.2951 43.8571L57.3583 44.1025C57.2369 44.1579 57.0258 44.2229 56.7253 44.2229C56.1444 44.2229 55.7986 43.8379 55.7986 43.2659C55.7986 42.6946 56.1331 42.2488 56.6834 42.2488C57.3034 42.2488 57.4647 42.7871 57.4647 43.1367C57.4647 43.2075 57.4597 43.2575 57.4518 43.2967H56.1248V43.2971Z" fill="#EC1B2E"/>
<path d="M58.0994 43.2388C58.0994 43.6538 58.3329 43.9676 58.6691 43.9676C58.9975 43.9676 59.2427 43.6584 59.2427 43.2301C59.2427 42.9088 59.0818 42.5059 58.6758 42.5059C58.2743 42.5059 58.0994 42.8818 58.0994 43.2388ZM59.593 43.2188C59.593 43.9193 59.1059 44.2234 58.6525 44.2234C58.1459 44.2234 57.7469 43.8488 57.7469 43.2501C57.7469 42.6201 58.1654 42.2493 58.6849 42.2493C59.2277 42.2489 59.593 42.6426 59.593 43.2188Z" fill="#EC1B2E"/>
<path d="M59.9748 43.8342C60.0804 43.8958 60.2604 43.9679 60.4303 43.9679C60.6764 43.9679 60.7927 43.8458 60.7927 43.6842C60.7927 43.52 60.6951 43.4338 60.4453 43.3408C60.1028 43.2159 59.9416 43.0321 59.9416 42.8038C59.9416 42.4992 60.1922 42.2488 60.5949 42.2488C60.7865 42.2488 60.9552 42.3009 61.0562 42.3671L60.9752 42.6167C60.9004 42.5709 60.7636 42.5021 60.587 42.5021C60.3838 42.5021 60.2749 42.6196 60.2749 42.7609C60.2749 42.9175 60.3838 42.9875 60.6302 43.085C60.9552 43.2075 61.1239 43.3717 61.1239 43.6529C61.1239 43.9904 60.8642 44.2225 60.4228 44.2225C60.2167 44.2225 60.0247 44.1692 59.8917 44.0904L59.9748 43.8342Z" fill="#EC1B2E"/>
<path d="M61.9747 41.8333V42.2874H62.4684V42.5512H61.9747V43.5716C61.9747 43.8061 62.0428 43.9382 62.2348 43.9382C62.3288 43.9382 62.3824 43.9311 62.4322 43.9149L62.4489 44.177C62.3828 44.2003 62.2772 44.2228 62.1442 44.2228C61.9847 44.2228 61.855 44.1691 61.7735 44.0782C61.6792 43.9741 61.641 43.8061 61.641 43.5832V42.5512H61.3484V42.2874H61.641V41.9353L61.9747 41.8333Z" fill="#EC1B2E"/>
<path d="M63.8453 43.2154C63.4721 43.2075 63.0462 43.2741 63.0462 43.6416C63.0462 43.8699 63.1941 43.9708 63.3662 43.9708C63.6163 43.9708 63.7768 43.8145 63.8308 43.6533C63.8416 43.6141 63.8453 43.5754 63.8453 43.5441V43.2154ZM64.1786 43.7279C64.1786 43.8929 64.1869 44.052 64.2065 44.1808H63.8977L63.8703 43.9412H63.8586C63.7527 44.0908 63.5499 44.2224 63.2805 44.2224C62.8974 44.2224 62.7029 43.9545 62.7029 43.6808C62.7029 43.2216 63.1089 42.9708 63.8391 42.9758V42.9366C63.8391 42.7837 63.7971 42.4991 63.4102 42.502C63.229 42.502 63.0466 42.5541 62.9136 42.6425L62.8363 42.4129C62.9913 42.3154 63.2219 42.2483 63.4592 42.2483C64.0369 42.2483 64.1786 42.6425 64.1786 43.0179V43.7279Z" fill="#EC1B2E"/>
<path d="M65.1249 41.8333V42.2874H65.6186V42.5512H65.1249V43.5716C65.1249 43.8061 65.1935 43.9382 65.383 43.9382C65.4773 43.9382 65.5305 43.9311 65.5829 43.9149L65.5991 44.177C65.5305 44.2003 65.4266 44.2228 65.294 44.2228C65.1349 44.2228 65.0044 44.1691 64.9229 44.0782C64.829 43.9741 64.7899 43.8061 64.7899 43.5832V42.5512H64.4982V42.2874H64.7899V41.9353L65.1249 41.8333Z" fill="#EC1B2E"/>
<path d="M65.9075 43.9776C65.9075 43.838 66.0051 43.7322 66.141 43.7322C66.2778 43.7322 66.3717 43.8343 66.3717 43.9776C66.3717 44.1193 66.2778 44.2234 66.1319 44.2234C66.0014 44.2234 65.9075 44.1193 65.9075 43.9776Z" fill="#EC1B2E"/>
<path d="M68.0672 43.0351C68.0672 42.9759 68.0635 42.9263 68.0473 42.8818C67.9862 42.6788 67.8204 42.5155 67.5664 42.5155C67.239 42.5155 67.0046 42.7926 67.0046 43.2301C67.0046 43.6026 67.1961 43.9126 67.5631 43.9126C67.7776 43.9126 67.9691 43.7788 68.0406 43.5593C68.0597 43.5005 68.0664 43.4338 68.0664 43.3751V43.0351H68.0672ZM68.4109 43.903C68.4109 44.3426 68.3203 44.6047 68.1416 44.7722C67.9538 44.9417 67.6874 45.0001 67.4501 45.0001C67.2244 45.0001 66.9742 44.9451 66.8213 44.8438L66.9073 44.5772C67.0328 44.6605 67.2277 44.7305 67.4617 44.7305C67.8137 44.7305 68.0701 44.5463 68.0701 44.0663V43.8576H68.0635C67.9617 44.0334 67.7555 44.173 67.4617 44.173C66.9938 44.173 66.658 43.7763 66.658 43.2501C66.658 42.6105 67.0769 42.2493 67.512 42.2493C67.8403 42.2493 68.0169 42.4184 68.103 42.5747H68.1096L68.1225 42.2884H68.4259C68.4151 42.4213 68.4113 42.5776 68.4113 42.8043V43.903H68.4109Z" fill="#EC1B2E"/>
<path d="M70.1685 43.0513C70.1731 42.8342 70.0792 42.4959 69.6931 42.4959C69.3403 42.4959 69.1936 42.8117 69.1649 43.0513H70.1685ZM69.1616 43.2971C69.1699 43.7642 69.4637 43.955 69.8091 43.955C70.0547 43.955 70.2072 43.9121 70.3319 43.8571L70.3955 44.1025C70.2749 44.1579 70.0642 44.2229 69.7625 44.2229C69.1811 44.2229 68.8333 43.8379 68.8333 43.2659C68.8333 42.6946 69.1695 42.2488 69.7197 42.2488C70.3402 42.2488 70.4989 42.7871 70.4989 43.1367C70.4989 43.2075 70.496 43.2575 70.4881 43.2967H69.1616V43.2971Z" fill="#EC1B2E"/>
<path d="M6.35644 23.5103H0V29.8756H6.35644V23.5103Z" fill="#929497"/>
<path d="M13.4817 12.5449H7.12524V29.8756H13.4817V12.5449Z" fill="#929497"/>
<path d="M20.6066 18.074H14.2498V29.8751H20.6066V18.074Z" fill="#929497"/>
<path d="M27.7314 0H21.3745V29.8751H27.7314V0Z" fill="#929497"/>
<path d="M34.8558 2.88037H28.4994V29.8751H34.8558V2.88037Z" fill="#929497"/>
<path d="M41.9812 4.68359H35.6248V29.8754H41.9812V4.68359Z" fill="#EC1B2E"/>
<path d="M49.1055 8.07324H42.7495V29.8751H49.1055V8.07324Z" fill="#EC1B2E"/>
<path d="M56.2304 15.573H49.8744V29.8749H56.2304V15.573Z" fill="#EC1B2E"/>
<path d="M63.3553 4.10693H56.9989V29.8754H63.3553V4.10693Z" fill="#EC1B2E"/>
<path d="M70.4806 8.5061H64.1241V29.8755H70.4806V8.5061Z" fill="#EC1B2E"/>
<path d="M70.4848 30.1893L0.0012207 30.196V29.2189L70.4848 29.2114V30.1893Z" fill="#808184"/>
</svg>
