<svg width="15" height="15" viewBox="0 0 15 15" fill="none" xmlns="http://www.w3.org/2000/svg">
<path d="M8.33333 15H5V5H8.33333V6.66667C8.68425 6.22022 9.12961 5.85697 9.63748 5.60297C10.1453 5.34896 10.7031 5.21049 11.2708 5.1975C12.2637 5.20301 13.2138 5.60202 13.9129 6.30703C14.6119 7.01203 15.0029 7.9655 15 8.95833V15H11.6667V9.375C11.6022 8.92464 11.3772 8.51273 11.0332 8.21506C10.6891 7.9174 10.2491 7.75402 9.79417 7.755C9.59055 7.76144 9.39033 7.80894 9.20552 7.89466C9.02071 7.98038 8.85513 8.10256 8.7187 8.25385C8.58227 8.40514 8.47781 8.58244 8.41159 8.77509C8.34537 8.96775 8.31875 9.1718 8.33333 9.375V15ZM3.33333 15H0V5H3.33333V15ZM1.66667 3.33333C1.22464 3.33333 0.800716 3.15774 0.488155 2.84518C0.175595 2.53262 0 2.10869 0 1.66667C0 1.22464 0.175595 0.800716 0.488155 0.488155C0.800716 0.175595 1.22464 0 1.66667 0C2.10869 0 2.53262 0.175595 2.84518 0.488155C3.15774 0.800716 3.33333 1.22464 3.33333 1.66667C3.33333 2.10869 3.15774 2.53262 2.84518 2.84518C2.53262 3.15774 2.10869 3.33333 1.66667 3.33333Z" fill="#C4C4C4"/>
</svg>
