<svg width="18" height="14" viewBox="0 0 18 14" fill="none" xmlns="http://www.w3.org/2000/svg">
<path d="M17.8889 1.66066C17.231 1.94128 16.5243 2.1309 15.7814 2.2166C16.548 1.77503 17.1215 1.08003 17.3949 0.261302C16.6747 0.673137 15.8864 0.963023 15.0645 1.11836C14.5117 0.550172 13.7795 0.173569 12.9816 0.0470186C12.1838 -0.0795316 11.3648 0.0510517 10.6519 0.418495C9.93901 0.785938 9.37207 1.36968 9.03911 2.0791C8.70615 2.78852 8.62579 3.58391 8.81051 4.3418C7.35117 4.27126 5.92354 3.90611 4.62028 3.27003C3.31702 2.63395 2.16725 1.74117 1.24559 0.649633C0.930449 1.17297 0.749244 1.77973 0.749244 2.42594C0.748892 3.00767 0.8977 3.58049 1.18246 4.09358C1.46723 4.60667 1.87915 5.04416 2.38167 5.36724C1.79888 5.34938 1.22894 5.19778 0.719306 4.92506V4.97056C0.719247 5.78647 1.01241 6.57726 1.54905 7.20877C2.0857 7.84027 2.83277 8.27359 3.6635 8.43519C3.12286 8.57605 2.55605 8.5968 2.00586 8.49587C2.24024 9.19791 2.6968 9.81181 3.31162 10.2516C3.92643 10.6915 4.66872 10.9352 5.43458 10.9487C4.1345 11.9312 2.5289 12.4642 0.876087 12.4618C0.583308 12.4619 0.290776 12.4455 0 12.4125C1.6777 13.451 3.63067 14.0021 5.62524 14C12.3771 14 16.0682 8.61647 16.0682 3.9474C16.0682 3.79571 16.0642 3.6425 16.0571 3.49081C16.7751 2.99097 17.3948 2.37201 17.8873 1.66293L17.8889 1.66066Z" fill="#C4C4C4"/>
</svg>
