<svg width="19" height="20" viewBox="0 0 19 20" fill="none" xmlns="http://www.w3.org/2000/svg">
<path d="M17.6471 17.6471H1.17647C0.526724 17.6471 0 18.1738 0 18.8236C0 19.4733 0.526724 20 1.17647 20H17.6471C18.2968 20 18.8235 19.4733 18.8235 18.8236C18.8235 18.1738 18.2968 17.6471 17.6471 17.6471Z" fill="#149C55"/>
<path d="M0 16.4706L0 18.8235C0 19.4733 0.526724 20 1.17647 20C1.82622 20 2.35294 19.4733 2.35294 18.8235V16.4706C2.35294 15.8208 1.82622 15.2941 1.17647 15.2941C0.526724 15.2941 0 15.8208 0 16.4706Z" fill="#149C55"/>
<path d="M16.4706 16.4706V18.8235C16.4706 19.4733 16.9973 20 17.6471 20C18.2968 20 18.8235 19.4733 18.8235 18.8235V16.4706C18.8235 15.8208 18.2968 15.2941 17.6471 15.2941C16.9973 15.2941 16.4706 15.8208 16.4706 16.4706Z" fill="#149C55"/>
<path d="M9.41173 14.1176C9.16783 14.1194 8.92938 14.0454 8.72938 13.9058L4.02349 10.5882C3.76986 10.4083 3.59778 10.1352 3.54487 9.82879C3.49196 9.52236 3.56253 9.20744 3.74114 8.95288C3.8303 8.82564 3.94378 8.71733 4.07503 8.63418C4.20628 8.55104 4.35269 8.49472 4.50583 8.46846C4.65896 8.44221 4.81578 8.44655 4.96723 8.48123C5.11867 8.51592 5.26175 8.58025 5.3882 8.67053L9.41173 11.4823L13.4117 8.47053C13.6613 8.28332 13.9751 8.20293 14.284 8.24706C14.5929 8.29118 14.8716 8.45621 15.0588 8.70582C15.246 8.95544 15.3264 9.2692 15.2823 9.57808C15.2381 9.88697 15.0731 10.1657 14.8235 10.3529L10.1176 13.8823C9.91397 14.035 9.66628 14.1176 9.41173 14.1176Z" fill="#149C55"/>
<path d="M9.4117 11.7647C9.09968 11.7647 8.80044 11.6408 8.57981 11.4201C8.35918 11.1995 8.23523 10.9003 8.23523 10.5882V1.17647C8.23523 0.864451 8.35918 0.565211 8.57981 0.34458C8.80044 0.123949 9.09968 0 9.4117 0C9.72372 0 10.023 0.123949 10.2436 0.34458C10.4642 0.565211 10.5882 0.864451 10.5882 1.17647V10.5882C10.5882 10.9003 10.4642 11.1995 10.2436 11.4201C10.023 11.6408 9.72372 11.7647 9.4117 11.7647Z" fill="#149C55"/>
</svg>
