<svg width="29" height="25" viewBox="0 0 29 25" fill="none" xmlns="http://www.w3.org/2000/svg">
<path d="M26.9841 25L27 5.8125C27.9365 5.26562 28.5714 4.26562 28.5714 3.125C28.5714 1.40625 27.1429 0 25.3968 0C23.6508 0 22.2222 1.40625 22.2222 3.125C22.2222 4.375 22.9683 5.4375 24.0317 5.9375L17.4762 16.2188C16.9524 15.8438 16.3175 15.625 15.6349 15.625C14.3016 15.625 13.1746 16.4219 12.6984 17.5625L9.30159 15.1719C9.44444 14.8281 9.52381 14.4531 9.52381 14.0625C9.52381 12.3281 8.11111 10.9375 6.34921 10.9375C5.50725 10.9375 4.69978 11.2667 4.10442 11.8528C3.50907 12.4388 3.1746 13.2337 3.1746 14.0625C3.17744 14.6022 3.32222 15.1319 3.59482 15.6002C3.86743 16.0684 4.25857 16.4591 4.73016 16.7344L0 25H26.9841ZM25.3968 1.5625C26.2698 1.5625 26.9841 2.26562 26.9841 3.125C26.9841 3.98438 26.2698 4.6875 25.3968 4.6875C24.5238 4.6875 23.8095 3.98438 23.8095 3.125C23.8095 2.26562 24.5238 1.5625 25.3968 1.5625ZM6.34921 12.5C7.22222 12.5 7.93651 13.2031 7.93651 14.0625C7.93651 14.9219 7.22222 15.625 6.34921 15.625C5.47619 15.625 4.7619 14.9219 4.7619 14.0625C4.7619 13.2031 5.47619 12.5 6.34921 12.5ZM15.6349 17.1875C16.5079 17.1875 17.2222 17.8906 17.2222 18.75C17.2222 19.6094 16.5079 20.3125 15.6349 20.3125C14.7619 20.3125 14.0476 19.6094 14.0476 18.75C14.0476 17.8906 14.7619 17.1875 15.6349 17.1875Z" fill="#5C4FC9"/>
</svg>
