<svg width="23" height="25" viewBox="0 0 23 25" fill="none" xmlns="http://www.w3.org/2000/svg">
<path d="M4.99994 11.25H7.49994V13.75H4.99994V11.25ZM4.99994 16.25H7.49994V18.75H4.99994V16.25ZM9.99994 11.25H12.4999V13.75H9.99994V11.25ZM9.99994 16.25H12.4999V18.75H9.99994V16.25ZM14.9999 11.25H17.4999V13.75H14.9999V11.25ZM14.9999 16.25H17.4999V18.75H14.9999V16.25Z" fill="#5C4FC9"/>
<path d="M2.5 25H20C21.3787 25 22.5 23.8787 22.5 22.5V5C22.5 3.62125 21.3787 2.5 20 2.5H17.5V0H15V2.5H7.5V0H5V2.5H2.5C1.12125 2.5 0 3.62125 0 5V22.5C0 23.8787 1.12125 25 2.5 25ZM20 7.5L20.0012 22.5H2.5V7.5H20Z" fill="#5C4FC9"/>
</svg>
