<svg width="20" height="20" viewBox="0 0 20 20" fill="none" xmlns="http://www.w3.org/2000/svg">
<path d="M0 14.2857C0 13.9068 0.15051 13.5435 0.418419 13.2756C0.686328 13.0077 1.04969 12.8571 1.42857 12.8571H4.28571C4.6646 12.8571 5.02796 13.0077 5.29587 13.2756C5.56378 13.5435 5.71429 13.9068 5.71429 14.2857V18.5714C5.71429 18.9503 5.56378 19.3137 5.29587 19.5816C5.02796 19.8495 4.6646 20 4.28571 20H1.42857C1.04969 20 0.686328 19.8495 0.418419 19.5816C0.15051 19.3137 0 18.9503 0 18.5714V14.2857ZM7.14286 8.57143C7.14286 8.19255 7.29337 7.82919 7.56128 7.56128C7.82919 7.29337 8.19255 7.14286 8.57143 7.14286H11.4286C11.8075 7.14286 12.1708 7.29337 12.4387 7.56128C12.7066 7.82919 12.8571 8.19255 12.8571 8.57143V18.5714C12.8571 18.9503 12.7066 19.3137 12.4387 19.5816C12.1708 19.8495 11.8075 20 11.4286 20H8.57143C8.19255 20 7.82919 19.8495 7.56128 19.5816C7.29337 19.3137 7.14286 18.9503 7.14286 18.5714V8.57143ZM14.2857 1.42857C14.2857 1.04969 14.4362 0.686328 14.7041 0.418419C14.972 0.15051 15.3354 0 15.7143 0H18.5714C18.9503 0 19.3137 0.15051 19.5816 0.418419C19.8495 0.686328 20 1.04969 20 1.42857V18.5714C20 18.9503 19.8495 19.3137 19.5816 19.5816C19.3137 19.8495 18.9503 20 18.5714 20H15.7143C15.3354 20 14.972 19.8495 14.7041 19.5816C14.4362 19.3137 14.2857 18.9503 14.2857 18.5714V1.42857Z" fill="#5C4FC9"/>
</svg>
