<svg width="25" height="25" viewBox="0 0 25 25" fill="none" xmlns="http://www.w3.org/2000/svg">
<path d="M22.4481 24.0567H15.3113C15.0961 23.2241 14.3455 22.6422 13.4858 22.6416H10.6556C9.79597 22.6422 9.04538 23.2241 8.83017 24.0567H1.69338C1.43276 24.0567 1.22168 24.2678 1.22168 24.5284C1.22168 24.789 1.43276 25.0001 1.69338 25.0001H22.4481C22.7087 25.0001 22.9198 24.789 22.9198 24.5284C22.9198 24.2678 22.7087 24.0567 22.4481 24.0567Z" fill="#5C4FC9"/>
<path d="M24.1415 6.60373L21.783 4.24524H13.9575V8.96222H21.783L24.1415 6.60373ZM18.6745 8.01882H15.8443C15.5837 8.01882 15.3726 7.80774 15.3726 7.54713C15.3726 7.28651 15.5837 7.07543 15.8443 7.07543H18.6745C18.9351 7.07543 19.1462 7.28651 19.1462 7.54713C19.1462 7.80774 18.9351 8.01882 18.6745 8.01882ZM20.5613 6.13203H15.8443C15.5837 6.13203 15.3726 5.92095 15.3726 5.66033C15.3726 5.39972 15.5837 5.18864 15.8443 5.18864H20.5613C20.8219 5.18864 21.033 5.39972 21.033 5.66033C21.033 5.92095 20.8219 6.13203 20.5613 6.13203Z" fill="#5C4FC9"/>
<path d="M10.184 14.6227V9.90576H2.35849L0 12.2643L2.35849 14.6227H10.184ZM8.29717 13.6793H5.46698C5.20637 13.6793 4.99528 13.4683 4.99528 13.2076C4.99528 12.947 5.20637 12.736 5.46698 12.736H8.29717C8.55778 12.736 8.76887 12.947 8.76887 13.2076C8.76887 13.4683 8.55778 13.6793 8.29717 13.6793ZM3.58019 10.8492H8.29717C8.55778 10.8492 8.76887 11.0602 8.76887 11.3209C8.76887 11.5815 8.55778 11.7926 8.29717 11.7926H3.58019C3.31958 11.7926 3.10849 11.5815 3.10849 11.3209C3.10849 11.0602 3.31958 10.8492 3.58019 10.8492Z" fill="#5C4FC9"/>
<path d="M13.0141 21.6981V3.7736C13.0141 3.25237 12.5919 2.8302 12.0707 2.8302C11.5495 2.8302 11.1273 3.25237 11.1273 3.7736V21.6981H13.0141Z" fill="#5C4FC9"/>
<path d="M12.0707 1.88679C12.5917 1.88679 13.0141 1.46442 13.0141 0.943396C13.0141 0.422373 12.5917 0 12.0707 0C11.5497 0 11.1273 0.422373 11.1273 0.943396C11.1273 1.46442 11.5497 1.88679 12.0707 1.88679Z" fill="#5C4FC9"/>
</svg>
