<svg width="12" height="25" viewBox="0 0 12 25" fill="none" xmlns="http://www.w3.org/2000/svg">
<path d="M3.70043 5.45914C3.00161 4.9947 2.48437 4.28188 2.26831 3.44836H1.72413C1.01131 3.44836 0.43103 4.02864 0.43103 4.74147V7.77487C1.24191 6.69244 2.37823 5.86701 3.70043 5.45914Z" fill="#5C4FC9"/>
<path d="M7.50647 5.45914C8.82867 5.86701 9.96498 6.6919 10.7759 7.77487V4.74147C10.7759 4.02864 10.1956 3.44836 9.48276 3.44836H8.93858C8.72253 4.28188 8.20528 4.9947 7.50647 5.45914Z" fill="#5C4FC9"/>
<path d="M9.91382 8.0625V11.2069C9.91382 11.5873 9.74518 11.9267 9.48279 12.1638V15.5172H9.91382C10.6266 15.5172 11.2069 14.937 11.2069 14.2241V11.6379C11.2069 10.2796 10.7209 9.03341 9.91382 8.0625Z" fill="#5C4FC9"/>
<path d="M5.60342 5.17241C7.03174 5.17241 8.18963 4.01453 8.18963 2.58621C8.18963 1.15788 7.03174 0 5.60342 0C4.1751 0 3.01721 1.15788 3.01721 2.58621C3.01721 4.01453 4.1751 5.17241 5.60342 5.17241Z" fill="#5C4FC9"/>
<path d="M4.31042 6.1908V6.46558C4.31042 7.1784 4.8907 7.75868 5.60353 7.75868C6.31635 7.75868 6.89663 7.1784 6.89663 6.46558V6.1908C6.48068 6.0922 6.04911 6.03455 5.60353 6.03455C5.15795 6.03455 4.72637 6.0922 4.31042 6.1908Z" fill="#5C4FC9"/>
<path d="M3.44825 11.6379C3.68586 11.6379 3.87929 11.445 3.87929 11.2069V7.74511C3.61259 7.38627 3.44879 6.94662 3.44825 6.46655C2.98112 6.6616 2.54847 6.92183 2.15515 7.23056V11.2069C2.15515 11.445 2.34858 11.6379 2.58619 11.6379H3.44825Z" fill="#5C4FC9"/>
<path d="M7.32751 7.74516V11.2069C7.32751 11.4451 7.52094 11.6379 7.75855 11.6379H8.62062C8.85823 11.6379 9.05165 11.4451 9.05165 11.2069V7.23007C8.65833 6.92188 8.22568 6.66219 7.75855 6.46606C7.75801 6.94721 7.59422 7.38686 7.32751 7.74516Z" fill="#5C4FC9"/>
<path d="M1.2931 8.0625C0.485991 9.03341 0 10.2796 0 11.6379V14.2241C0 14.937 0.58028 15.5172 1.2931 15.5172H1.72414V12.1638C1.46175 11.9273 1.2931 11.5873 1.2931 11.2069V8.0625Z" fill="#5C4FC9"/>
<path d="M6.46549 11.207V8.43811C6.20094 8.55449 5.91054 8.62076 5.60342 8.62076C5.29631 8.62076 5.0059 8.55449 4.74135 8.43811V11.207C4.74135 11.9198 4.16107 12.5001 3.44825 12.5001H2.58618V23.707C2.58618 24.4198 3.16646 25.0001 3.87929 25.0001C4.59211 25.0001 5.17239 24.4198 5.17239 23.707V14.2242H6.03446V23.707C6.03446 24.4198 6.61474 25.0001 7.32756 25.0001C8.04038 25.0001 8.62066 24.4198 8.62066 23.707V12.5001H7.7586C7.04577 12.5001 6.46549 11.9198 6.46549 11.207Z" fill="#5C4FC9"/>
</svg>
